#!OML:ASF I:\Actors\actors\Patient Classification 2\Patient 1\Session 1\actor1.ASF
:FULLY-SPECIFIED
:DEGREES
512
root -0.0868071 18.6475 6.42211 3.86393 -1.31337 3.47528
lowerback 12.3998 -1.17668 4.07306
upperback -4.67917 -0.252912 5.47747
thorax -12.1548 -0.16252 3.78601
lowerneck -19.2506 5.78761 -0.789421
upperneck 23.7674 13.6668 -17.6724
head 12.5568 3.88786 -4.23791
rclavicle -2.28975e-014 4.45278e-014
rhumerus -22.8502 14.8377 -89.8156
rradius 140.976
rwrist -69.2006
rhand -14.7949 -24.9431
rfingers 7.12502
rthumb 11.3625 305.385
lclavicle -2.28975e-014 4.45278e-014
lhumerus 61.4925 -39.6368 48.4785
lradius 116.41
lwrist 30.0625
lhand -31.4763 -45.3351
lfingers 7.12502
lthumb -4.74303 -15.4082
rfemur 0 0 0
rtibia 0
rfoot 0 0
rtoes 0
lfemur -4.67168 -0.472524 -19.4978
ltibia 21.022
lfoot -21.0284 8.32072
ltoes -55.0516
513
root -0.10098 18.6362 6.49067 3.67449 -2.1501 3.52624
lowerback 11.1221 -1.24693 3.96006
upperback -4.91705 -0.462663 5.40175
thorax -11.6434 -0.261921 3.77197
lowerneck -18.755 6.07234 -0.471982
upperneck 24.1489 14.0495 -17.7334
head 12.6773 4.07715 -4.27245
rclavicle 3.66261e-014 -9.54166e-015
rhumerus -23.4018 13.7542 -89.7671
rradius 139.66
rwrist -69.4329
rhand -14.1254 -27.546
rfingers 7.12502
rthumb 12.0082 302.818
lclavicle 3.66261e-014 -9.54166e-015
lhumerus 60.5872 -40.997 48.5707
lradius 115.081
lwrist 31.4017
lhand -30.7325 -45.4453
lfingers 7.12502
lthumb -4.02483 -15.5036
rfemur 0 0 0
rtibia 0
rfoot 0 0
rtoes 0
lfemur -3.98367 -0.28438 -19.613
ltibia 20.7846
lfoot -21.4013 8.85482
ltoes -55.1344
514
root -0.113546 18.6252 6.54159 3.30061 -3.05871 3.57078
lowerback 10.1976 -1.29447 3.91049
upperback -4.92537 -0.614773 5.33968
thorax -11.0881 -0.338178 3.72343
lowerneck -18.5695 6.31697 -0.168912
upperneck 24.386 14.3341 -17.6808
head 12.7807 4.22847 -4.26551
rclavicle -3.11098e-014 6.67916e-014
rhumerus -23.9565 13.429 -89.958
rradius 138.102
rwrist -70.8505
rhand -15.009 -28.1399
rfingers 7.12502
rthumb 11.1561 302.177
lclavicle -3.11098e-014 6.67916e-014
lhumerus 58.9237 -42.2985 49.2299
lradius 113.608
lwrist 32.7687
lhand -31.218 -43.0683
lfingers 7.12502
lthumb -4.49368 -13.136
rfemur 0 0 0
rtibia 0
rfoot 0 0
rtoes 0
lfemur -3.18523 0.081893 -19.7147
ltibia 20.615
lfoot -21.6755 9.25395
ltoes -55.1767
515
root -0.124307 18.6153 6.57238 2.7944 -4.03823 3.49185
lowerback 9.71077 -1.35554 4.00186
upperback -4.79082 -0.732753 5.33807
thorax -10.6417 -0.404278 3.66446
lowerneck -18.4592 6.58405 0.151387
upperneck 24.4533 14.5827 -17.5325
head 12.8165 4.3861 -4.22021
rclavicle 2.28602e-015 1.27222e-014
rhumerus -24.3758 13.3801 -90.0397
rradius 136.378
rwrist -72.9187
rhand -15.4614 -29.172
rfingers 7.12502
rthumb 10.7197 301.121
lclavicle 2.28602e-015 1.27222e-014
lhumerus 56.5748 -43.3646 50.2667
lradius 112.302
lwrist 34.9406
lhand -31.3126 -41.5685
lfingers 7.12502
lthumb -4.58497 -11.6381
rfemur 0 0 0
rtibia 0
rfoot 0 0
rtoes 0
lfemur -2.34476 0.611051 -19.6682
ltibia 20.5291
lfoot -21.9268 9.57466
ltoes -55.1036
516
root -0.132577 18.6053 6.58591 2.22025 -5.0206 3.32621
lowerback 9.58048 -1.46327 4.15753
upperback -4.59677 -0.871805 5.43394
thorax -10.345 -0.479281 3.69117
lowerneck -18.1287 6.92221 0.545147
upperneck 24.2372 14.8757 -17.5037
head 12.7155 4.59093 -4.21842
rclavicle -1.30204e-014 6.04305e-014
rhumerus -25.1919 13.7538 -90.0572
rradius 134.871
rwrist -74.1287
rhand -15.5064 -30.1508
rfingers 7.12502
rthumb 10.6763 300.14
lclavicle -1.30204e-014 6.04305e-014
lhumerus 53.1864 -44.257 52.2166
lradius 110.984
lwrist 37.3124
lhand -31.1037 -40.8585
lfingers 7.12502
lthumb -4.38329 -10.9239
rfemur 0 0 0
rtibia 0
rfoot 0 0
rtoes 0
lfemur -1.52631 1.17665 -19.5219
ltibia 20.534
lfoot -22.1892 9.9535
ltoes -55.0446
517
root -0.138316 18.5953 6.58735 1.7163 -5.95647 3.22809
lowerback 9.61965 -1.51323 4.33543
upperback -4.23427 -0.939257 5.41257
thorax -9.96662 -0.525074 3.5616
lowerneck -18.3504 7.25677 1.16883
upperneck 24.0457 15.1206 -17.4326
head 12.7487 4.76656 -4.23506
rclavicle 1.54555e-014 -5.725e-014
rhumerus -26.2901 14.207 -90.2067
rradius 133.876
rwrist -73.7299
rhand -15.789 -31.382
rfingers 7.12502
rthumb 10.4037 298.895
lclavicle 1.54555e-014 -5.725e-014
lhumerus 49.8464 -44.8917 54.255
lradius 109.706
lwrist 39.1972
lhand -31.1243 -40.5748
lfingers 7.12502
lthumb -4.40319 -10.6406
rfemur 0 0 0
rtibia 0
rfoot 0 0
rtoes 0
lfemur -0.854952 1.76405 -19.4392
ltibia 20.5606
lfoot -22.3498 10.3103
ltoes -55.1069
518
root -0.143784 18.5875 6.58121 1.41267 -6.83982 3.2241
lowerback 9.69687 -1.58403 4.39332
upperback -4.01436 -1.03728 5.40346
thorax -9.76723 -0.576554 3.52831
lowerneck -18.2626 7.58433 1.74021
upperneck 23.8674 15.329 -17.2741
head 12.7044 4.94893 -4.22329
rclavicle -1.21259e-014 1.27222e-014
rhumerus -27.6531 15.1608 -90.3232
rradius 133.131
rwrist -73.2319
rhand -15.4241 -31.697
rfingers 7.12502
rthumb 10.7557 298.598
lclavicle -1.21259e-014 1.27222e-014
lhumerus 46.1002 -45.424 56.6155
lradius 108.804
lwrist 40.7503
lhand -31.5186 -39.7805
lfingers 7.12502
lthumb -4.78394 -9.8545
rfemur 0 0 0
rtibia 0
rfoot 0 0
rtoes 0
lfemur -0.434977 2.34869 -19.4447
ltibia 20.5651
lfoot -22.4652 10.5667
ltoes -55.1111
519
root -0.169149 18.5818 6.5817 1.15801 -7.05884 3.28536
lowerback 9.63237 -1.84691 4.14685
upperback -3.81445 -1.43638 5.48387
thorax -9.48823 -0.751652 3.81122
lowerneck -17.8748 7.80951 2.18465
upperneck 23.4732 15.3966 -17.2082
head 12.4963 5.07832 -4.25347
rclavicle 4.69132e-014 -5.08889e-014
rhumerus -28.9166 16.4206 -90.236
rradius 132.49
rwrist -73.3107
rhand -15.6054 -32.2032
rfingers 7.12502
rthumb 10.5809 298.083
lclavicle 4.69132e-014 -5.08889e-014
lhumerus 41.984 -45.7352 59.5198
lradius 107.942
lwrist 41.9173
lhand -31.3916 -39.0539
lfingers 7.12502
lthumb -4.66129 -9.1252
rfemur 0 0 0
rtibia 0
rfoot 0 0
rtoes 0
lfemur -0.0701495 2.84266 -19.3167
ltibia 20.5245
lfoot -22.3919 10.2865
ltoes -55.1328
520
root -0.180416 18.5846 6.57199 1.27219 -7.48146 3.37574
lowerback 9.42915 -2.04469 3.95113
upperback -3.70948 -1.74391 5.58379
thorax -9.23329 -0.887018 4.06644
lowerneck -17.1408 7.974 2.49639
upperneck 22.7981 15.4043 -17.3298
head 12.1139 5.18558 -4.34624
rclavicle -9.88954e-015 4.45278e-014
rhumerus -30.4815 17.5726 -90.1481
rradius 132.046
rwrist -74.1828
rhand -15.9048 -33.0238
rfingers 7.12502
rthumb 10.292 297.248
lclavicle -9.88954e-015 4.45278e-014
lhumerus 37.5697 -45.6876 62.8989
lradius 107.15
lwrist 43.6997
lhand -31.5716 -38.3076
lfingers 7.12502
lthumb -4.83504 -8.38281
rfemur 0 0 0
rtibia 0
rfoot 0 0
rtoes 0
lfemur -0.147835 3.23924 -19.3613
ltibia 20.4656
lfoot -22.3857 10.2936
ltoes -55.1276
521
root -0.183596 18.5917 6.55656 1.59325 -7.93825 3.44795
lowerback 9.20037 -2.19347 3.89783
upperback -3.63277 -1.97262 5.60671
thorax -9.00303 -0.996103 4.14238
lowerneck -16.6778 8.13972 2.78448
upperneck 22.3987 15.4741 -17.3832
head 11.8987 5.29022 -4.40113
rclavicle 4.64805e-015 2.8625e-014
rhumerus -32.2512 18.2732 -90.1348
rradius 131.701
rwrist -75.3577
rhand -16.2097 -34.6189
rfingers 7.12502
rthumb 9.99782 295.639
lclavicle 4.64805e-015 2.8625e-014
lhumerus 33.3771 -45.4959 66.188
lradius 106.511
lwrist 46.1177
lhand -32.0497 -37.6421
lfingers 7.12502
lthumb -5.29672 -7.72832
rfemur 0 0 0
rtibia 0
rfoot 0 0
rtoes 0
lfemur -0.47336 3.46905 -19.4841
ltibia 20.3869
lfoot -22.4307 10.5409
ltoes -55.2111
522
root -0.185998 18.5991 6.53853 1.93814 -8.23216 3.45369
lowerback 9.07707 -2.3168 4.05201
upperback -3.50427 -2.14629 5.48486
thorax -8.79354 -1.09447 3.93771
lowerneck -16.7069 8.26151 3.2235
upperneck 22.3619 15.4969 -17.3182
head 11.9186 5.3459 -4.44285
rclavicle 4.50993e-014 -4.77083e-014
rhumerus -34.0968 18.7325 -90.3877
rradius 131.229
rwrist -75.4083
rhand -16.6709 -35.4751
rfingers 7.12502
rthumb 9.55287 294.761
lclavicle 4.50993e-014 -4.77083e-014
lhumerus 29.6323 -45.3695 69.1669
lradius 105.99
lwrist 48.7563
lhand -32.2122 -37.1023
lfingers 7.12502
lthumb -5.45361 -7.19249
rfemur 0 0 0
rtibia 0
rfoot 0 0
rtoes 0
lfemur -0.851431 3.62219 -19.5277
ltibia 20.3175
lfoot -22.4553 10.7878
ltoes -55.2926
523
root -0.18791 18.6069 6.51873 2.27834 -8.35544 3.45635
lowerback 9.00916 -2.48748 4.23524
upperback -3.35902 -2.37861 5.32968
thorax -8.60145 -1.22289 3.69295
lowerneck -16.7762 8.38066 3.67027
upperneck 22.348 15.5336 -17.3022
head 11.9646 5.39865 -4.50168
rclavicle -3.56322e-014 -9.54166e-015
rhumerus -36.3907 19.4369 -91.1905
rradius 130.644
rwrist -73.9847
rhand -17.4418 -33.8975
rfingers 7.12502
rthumb 8.80898 296.306
lclavicle -3.56322e-014 -9.54166e-015
lhumerus 25.9681 -45.0866 72.2237
lradius 105.513
lwrist 51.5975
lhand -31.9932 -36.1145
lfingers 7.12502
lthumb -5.24215 -6.19938
rfemur 0 0 0
rtibia 0
rfoot 0 0
rtoes 0
lfemur -1.2567 3.65002 -19.5659
ltibia 20.2591
lfoot -22.4579 11.0203
ltoes -55.3273
524
root -0.190385 18.6152 6.49518 2.58174 -8.32032 3.5076
lowerback 9.02773 -2.75055 4.26124
upperback -3.21372 -2.74106 5.25418
thorax -8.44839 -1.40284 3.64864
lowerneck -17.1973 8.63868 3.68079
upperneck 23.0338 15.8654 -16.6881
head 12.2903 5.54792 -4.21648
rclavicle 5.1684e-014 1.59028e-014
rhumerus -38.3525 19.5961 -91.3485
rradius 129.963
rwrist -75.105
rhand -18.345 -36.9093
rfingers 7.12502
rthumb 7.93732 293.26
lclavicle 5.1684e-014 1.59028e-014
lhumerus 22.2498 -44.4803 75.4982
lradius 105.011
lwrist 54.2011
lhand -31.79 -34.9214
lfingers 7.12502
lthumb -5.04601 -5.00151
rfemur 0 0 0
rtibia 0
rfoot 0 0
rtoes 0
lfemur -1.67426 3.5266 -19.6572
ltibia 20.2186
lfoot -22.4034 11.2535
ltoes -55.453
525
root -0.191816 18.623 6.46715 2.82438 -8.18026 3.55919
lowerback 9.17465 -3.05328 4.25086
upperback -3.03967 -3.15169 5.18337
thorax -8.33667 -1.60357 3.64451
lowerneck -16.9062 8.86722 3.88695
upperneck 22.8701 16.1023 -16.7103
head 12.2159 5.69577 -4.21846
rclavicle 9.44227e-015 -2.54444e-014
rhumerus -40.0386 20.2377 -91.3667
rradius 128.911
rwrist -75.7991
rhand -18.9479 -35.5492
rfingers 7.12502
rthumb 7.35548 294.599
lclavicle 9.44227e-015 -2.54444e-014
lhumerus 18.6889 -43.7454 78.7214
lradius 104.413
lwrist 56.2026
lhand -31.9897 -34.5468
lfingers 7.12502
lthumb -5.2388 -4.6316
rfemur 0 0 0
rtibia 0
rfoot 0 0
rtoes 0
lfemur -2.05458 3.36655 -19.7245
ltibia 20.1861
lfoot -22.28 11.3469
ltoes -55.5156
526
root -0.191632 18.6318 6.43568 3.07831 -8.02738 3.57717
lowerback 9.34457 -3.31145 4.30035
upperback -2.8146 -3.50115 5.03942
thorax -8.19359 -1.77932 3.51767
lowerneck -16.555 8.97401 4.44607
upperneck 22.4967 16.1759 -17.2508
head 12.1202 5.75882 -4.50328
rclavicle 1.92821e-014 -7.95139e-015
rhumerus -41.3859 20.0195 -90.8548
rradius 127.936
rwrist -78.361
rhand -19.5993 -40.6436
rfingers 7.12502
rthumb 6.7266 289.483
lclavicle 1.92821e-014 -7.95139e-015
lhumerus 15.5011 -43.0575 81.6258
lradius 103.8
lwrist 57.9784
lhand -32.192 -34.2417
lfingers 7.12502
lthumb -5.43414 -4.33134
rfemur 0 0 0
rtibia 0
rfoot 0 0
rtoes 0
lfemur -2.45135 3.28742 -19.7306
ltibia 20.1593
lfoot -22.1584 11.2758
ltoes -55.4489
527
root -0.191125 18.6418 6.40105 3.34715 -7.91692 3.56686
lowerback 9.846 -3.54635 4.36561
upperback -2.7409 -3.78339 4.86971
thorax -8.41356 -1.92158 3.3818
lowerneck -16.9996 8.83832 5.19944
upperneck 22.8936 16.0952 -18.0913
head 12.5288 5.63755 -4.97434
rclavicle -2.98177e-014 3.81667e-014
rhumerus -43.3114 20.0423 -90.971
rradius 127.072
rwrist -78.6762
rhand -19.9386 -41.9726
rfingers 7.12502
rthumb 6.39904 288.144
lclavicle -2.98177e-014 3.81667e-014
lhumerus 12.1534 -42.2731 84.5787
lradius 103.208
lwrist 60.0112
lhand -31.9796 -33.405
lfingers 7.12502
lthumb -5.22905 -3.48949
rfemur 0 0 0
rtibia 0
rfoot 0 0
rtoes 0
lfemur -2.87267 3.3302 -19.6943
ltibia 20.1433
lfoot -22.0317 11.1273
ltoes -55.3665
